<?xml version="1.0" encoding="UTF-8" standalone="no"?>
<!DOCTYPE svg PUBLIC "-//W3C//DTD SVG 1.1//EN"
 "http://www.w3.org/Graphics/SVG/1.1/DTD/svg11.dtd">
<!-- Generated by graphviz version 2.38.0 (20140413.2041)
 -->
<!-- Title: %3 Pages: 1 -->
<svg width="819pt" height="404pt"
 viewBox="0.00 0.00 819.09 404.00" xmlns="http://www.w3.org/2000/svg" xmlns:xlink="http://www.w3.org/1999/xlink">
<g id="graph0" class="graph" transform="scale(1 1) rotate(0) translate(4 400)">
<title>%3</title>
<polygon fill="white" stroke="none" points="-4,4 -4,-400 815.095,-400 815.095,4 -4,4"/>
<!-- n1 -->
<g id="node1" class="node"><title>n1</title>
<ellipse fill="none" stroke="black" cx="503.547" cy="-378" rx="30.5947" ry="18"/>
<text text-anchor="middle" x="503.547" y="-374.3" font-family="Times,serif" font-size="14.00">fib(6)</text>
</g>
<!-- n2 -->
<g id="node2" class="node"><title>n2</title>
<ellipse fill="none" stroke="black" cx="424.547" cy="-306" rx="30.5947" ry="18"/>
<text text-anchor="middle" x="424.547" y="-302.3" font-family="Times,serif" font-size="14.00">fib(5)</text>
</g>
<!-- n1&#45;&gt;n2 -->
<g id="edge1" class="edge"><title>n1&#45;&gt;n2</title>
<path fill="none" stroke="black" d="M487.178,-362.496C476.056,-352.641 461.157,-339.439 448.68,-328.383"/>
<polygon fill="black" stroke="black" points="450.701,-325.498 440.895,-321.485 446.059,-330.737 450.701,-325.498"/>
</g>
<!-- n3 -->
<g id="node3" class="node"><title>n3</title>
<ellipse fill="none" stroke="black" cx="582.547" cy="-306" rx="30.5947" ry="18"/>
<text text-anchor="middle" x="582.547" y="-302.3" font-family="Times,serif" font-size="14.00">fib(4)</text>
</g>
<!-- n1&#45;&gt;n3 -->
<g id="edge2" class="edge"><title>n1&#45;&gt;n3</title>
<path fill="none" stroke="black" d="M519.916,-362.496C531.038,-352.641 545.938,-339.439 558.415,-328.383"/>
<polygon fill="black" stroke="black" points="561.036,-330.737 566.199,-321.485 556.394,-325.498 561.036,-330.737"/>
</g>
<!-- n4 -->
<g id="node4" class="node"><title>n4</title>
<ellipse fill="none" stroke="black" cx="267.547" cy="-234" rx="30.5947" ry="18"/>
<text text-anchor="middle" x="267.547" y="-230.3" font-family="Times,serif" font-size="14.00">fib(4)</text>
</g>
<!-- n2&#45;&gt;n4 -->
<g id="edge3" class="edge"><title>n2&#45;&gt;n4</title>
<path fill="none" stroke="black" d="M400.702,-294.369C373.92,-282.427 330.289,-262.974 300.315,-249.61"/>
<polygon fill="black" stroke="black" points="301.661,-246.378 291.102,-245.502 298.81,-252.771 301.661,-246.378"/>
</g>
<!-- n5 -->
<g id="node5" class="node"><title>n5</title>
<ellipse fill="none" stroke="black" cx="424.547" cy="-234" rx="30.5947" ry="18"/>
<text text-anchor="middle" x="424.547" y="-230.3" font-family="Times,serif" font-size="14.00">fib(3)</text>
</g>
<!-- n2&#45;&gt;n5 -->
<g id="edge4" class="edge"><title>n2&#45;&gt;n5</title>
<path fill="none" stroke="black" d="M424.547,-287.697C424.547,-279.983 424.547,-270.712 424.547,-262.112"/>
<polygon fill="black" stroke="black" points="428.047,-262.104 424.547,-252.104 421.047,-262.104 428.047,-262.104"/>
</g>
<!-- n6 -->
<g id="node6" class="node"><title>n6</title>
<ellipse fill="none" stroke="black" cx="582.547" cy="-234" rx="30.5947" ry="18"/>
<text text-anchor="middle" x="582.547" y="-230.3" font-family="Times,serif" font-size="14.00">fib(3)</text>
</g>
<!-- n3&#45;&gt;n6 -->
<g id="edge5" class="edge"><title>n3&#45;&gt;n6</title>
<path fill="none" stroke="black" d="M582.547,-287.697C582.547,-279.983 582.547,-270.712 582.547,-262.112"/>
<polygon fill="black" stroke="black" points="586.047,-262.104 582.547,-252.104 579.047,-262.104 586.047,-262.104"/>
</g>
<!-- n7 -->
<g id="node7" class="node"><title>n7</title>
<ellipse fill="none" stroke="black" cx="701.547" cy="-234" rx="30.5947" ry="18"/>
<text text-anchor="middle" x="701.547" y="-230.3" font-family="Times,serif" font-size="14.00">fib(2)</text>
</g>
<!-- n3&#45;&gt;n7 -->
<g id="edge6" class="edge"><title>n3&#45;&gt;n7</title>
<path fill="none" stroke="black" d="M603.548,-292.647C622.581,-281.451 650.825,-264.837 672.108,-252.317"/>
<polygon fill="black" stroke="black" points="673.912,-255.317 680.756,-247.23 670.362,-249.283 673.912,-255.317"/>
</g>
<!-- n8 -->
<g id="node8" class="node"><title>n8</title>
<ellipse fill="none" stroke="black" cx="148.547" cy="-162" rx="30.5947" ry="18"/>
<text text-anchor="middle" x="148.547" y="-158.3" font-family="Times,serif" font-size="14.00">fib(3)</text>
</g>
<!-- n4&#45;&gt;n8 -->
<g id="edge7" class="edge"><title>n4&#45;&gt;n8</title>
<path fill="none" stroke="black" d="M246.546,-220.647C227.513,-209.451 199.27,-192.837 177.986,-180.317"/>
<polygon fill="black" stroke="black" points="179.732,-177.283 169.338,-175.23 176.183,-183.317 179.732,-177.283"/>
</g>
<!-- n9 -->
<g id="node9" class="node"><title>n9</title>
<ellipse fill="none" stroke="black" cx="267.547" cy="-162" rx="30.5947" ry="18"/>
<text text-anchor="middle" x="267.547" y="-158.3" font-family="Times,serif" font-size="14.00">fib(2)</text>
</g>
<!-- n4&#45;&gt;n9 -->
<g id="edge8" class="edge"><title>n4&#45;&gt;n9</title>
<path fill="none" stroke="black" d="M267.547,-215.697C267.547,-207.983 267.547,-198.712 267.547,-190.112"/>
<polygon fill="black" stroke="black" points="271.047,-190.104 267.547,-180.104 264.047,-190.104 271.047,-190.104"/>
</g>
<!-- n10 -->
<g id="node10" class="node"><title>n10</title>
<ellipse fill="none" stroke="black" cx="385.547" cy="-162" rx="30.5947" ry="18"/>
<text text-anchor="middle" x="385.547" y="-158.3" font-family="Times,serif" font-size="14.00">fib(2)</text>
</g>
<!-- n5&#45;&gt;n10 -->
<g id="edge9" class="edge"><title>n5&#45;&gt;n10</title>
<path fill="none" stroke="black" d="M415.502,-216.765C410.844,-208.404 405.056,-198.016 399.813,-188.606"/>
<polygon fill="black" stroke="black" points="402.739,-186.666 394.814,-179.633 396.624,-190.073 402.739,-186.666"/>
</g>
<!-- n11 -->
<g id="node11" class="node"><title>n11</title>
<ellipse fill="none" stroke="black" cx="464.547" cy="-162" rx="30.5947" ry="18"/>
<text text-anchor="middle" x="464.547" y="-158.3" font-family="Times,serif" font-size="14.00">fib(1)</text>
</g>
<!-- n5&#45;&gt;n11 -->
<g id="edge10" class="edge"><title>n5&#45;&gt;n11</title>
<path fill="none" stroke="black" d="M433.825,-216.765C438.602,-208.404 444.538,-198.016 449.915,-188.606"/>
<polygon fill="black" stroke="black" points="453.12,-190.052 455.042,-179.633 447.042,-186.579 453.12,-190.052"/>
</g>
<!-- n12 -->
<g id="node12" class="node"><title>n12</title>
<ellipse fill="none" stroke="black" cx="543.547" cy="-162" rx="30.5947" ry="18"/>
<text text-anchor="middle" x="543.547" y="-158.3" font-family="Times,serif" font-size="14.00">fib(2)</text>
</g>
<!-- n6&#45;&gt;n12 -->
<g id="edge11" class="edge"><title>n6&#45;&gt;n12</title>
<path fill="none" stroke="black" d="M573.502,-216.765C568.844,-208.404 563.056,-198.016 557.813,-188.606"/>
<polygon fill="black" stroke="black" points="560.739,-186.666 552.814,-179.633 554.624,-190.073 560.739,-186.666"/>
</g>
<!-- n13 -->
<g id="node13" class="node"><title>n13</title>
<ellipse fill="none" stroke="black" cx="622.547" cy="-162" rx="30.5947" ry="18"/>
<text text-anchor="middle" x="622.547" y="-158.3" font-family="Times,serif" font-size="14.00">fib(1)</text>
</g>
<!-- n6&#45;&gt;n13 -->
<g id="edge12" class="edge"><title>n6&#45;&gt;n13</title>
<path fill="none" stroke="black" d="M591.825,-216.765C596.602,-208.404 602.538,-198.016 607.915,-188.606"/>
<polygon fill="black" stroke="black" points="611.12,-190.052 613.042,-179.633 605.042,-186.579 611.12,-190.052"/>
</g>
<!-- n14 -->
<g id="node14" class="node"><title>n14</title>
<ellipse fill="none" stroke="black" cx="701.547" cy="-162" rx="30.5947" ry="18"/>
<text text-anchor="middle" x="701.547" y="-158.3" font-family="Times,serif" font-size="14.00">fib(1)</text>
</g>
<!-- n7&#45;&gt;n14 -->
<g id="edge13" class="edge"><title>n7&#45;&gt;n14</title>
<path fill="none" stroke="black" d="M701.547,-215.697C701.547,-207.983 701.547,-198.712 701.547,-190.112"/>
<polygon fill="black" stroke="black" points="705.047,-190.104 701.547,-180.104 698.047,-190.104 705.047,-190.104"/>
</g>
<!-- n15 -->
<g id="node15" class="node"><title>n15</title>
<ellipse fill="none" stroke="black" cx="780.547" cy="-162" rx="30.5947" ry="18"/>
<text text-anchor="middle" x="780.547" y="-158.3" font-family="Times,serif" font-size="14.00">fib(0)</text>
</g>
<!-- n7&#45;&gt;n15 -->
<g id="edge14" class="edge"><title>n7&#45;&gt;n15</title>
<path fill="none" stroke="black" d="M717.916,-218.496C729.038,-208.641 743.938,-195.439 756.415,-184.383"/>
<polygon fill="black" stroke="black" points="759.036,-186.737 764.199,-177.485 754.394,-181.498 759.036,-186.737"/>
</g>
<!-- n16 -->
<g id="node16" class="node"><title>n16</title>
<ellipse fill="none" stroke="black" cx="69.5473" cy="-90" rx="30.5947" ry="18"/>
<text text-anchor="middle" x="69.5473" y="-86.3" font-family="Times,serif" font-size="14.00">fib(2)</text>
</g>
<!-- n8&#45;&gt;n16 -->
<g id="edge15" class="edge"><title>n8&#45;&gt;n16</title>
<path fill="none" stroke="black" d="M132.178,-146.496C121.056,-136.641 106.157,-123.439 93.68,-112.383"/>
<polygon fill="black" stroke="black" points="95.7009,-109.498 85.8952,-105.485 91.0586,-114.737 95.7009,-109.498"/>
</g>
<!-- n17 -->
<g id="node17" class="node"><title>n17</title>
<ellipse fill="none" stroke="black" cx="148.547" cy="-90" rx="30.5947" ry="18"/>
<text text-anchor="middle" x="148.547" y="-86.3" font-family="Times,serif" font-size="14.00">fib(1)</text>
</g>
<!-- n8&#45;&gt;n17 -->
<g id="edge16" class="edge"><title>n8&#45;&gt;n17</title>
<path fill="none" stroke="black" d="M148.547,-143.697C148.547,-135.983 148.547,-126.712 148.547,-118.112"/>
<polygon fill="black" stroke="black" points="152.047,-118.104 148.547,-108.104 145.047,-118.104 152.047,-118.104"/>
</g>
<!-- n18 -->
<g id="node18" class="node"><title>n18</title>
<ellipse fill="none" stroke="black" cx="227.547" cy="-90" rx="30.5947" ry="18"/>
<text text-anchor="middle" x="227.547" y="-86.3" font-family="Times,serif" font-size="14.00">fib(1)</text>
</g>
<!-- n9&#45;&gt;n18 -->
<g id="edge17" class="edge"><title>n9&#45;&gt;n18</title>
<path fill="none" stroke="black" d="M258.27,-144.765C253.493,-136.404 247.556,-126.016 242.179,-116.606"/>
<polygon fill="black" stroke="black" points="245.052,-114.579 237.052,-107.633 238.975,-118.052 245.052,-114.579"/>
</g>
<!-- n19 -->
<g id="node19" class="node"><title>n19</title>
<ellipse fill="none" stroke="black" cx="306.547" cy="-90" rx="30.5947" ry="18"/>
<text text-anchor="middle" x="306.547" y="-86.3" font-family="Times,serif" font-size="14.00">fib(0)</text>
</g>
<!-- n9&#45;&gt;n19 -->
<g id="edge18" class="edge"><title>n9&#45;&gt;n19</title>
<path fill="none" stroke="black" d="M276.593,-144.765C281.251,-136.404 287.038,-126.016 292.281,-116.606"/>
<polygon fill="black" stroke="black" points="295.471,-118.073 297.28,-107.633 289.356,-114.666 295.471,-118.073"/>
</g>
<!-- n20 -->
<g id="node20" class="node"><title>n20</title>
<ellipse fill="none" stroke="black" cx="385.547" cy="-90" rx="30.5947" ry="18"/>
<text text-anchor="middle" x="385.547" y="-86.3" font-family="Times,serif" font-size="14.00">fib(1)</text>
</g>
<!-- n10&#45;&gt;n20 -->
<g id="edge19" class="edge"><title>n10&#45;&gt;n20</title>
<path fill="none" stroke="black" d="M385.547,-143.697C385.547,-135.983 385.547,-126.712 385.547,-118.112"/>
<polygon fill="black" stroke="black" points="389.047,-118.104 385.547,-108.104 382.047,-118.104 389.047,-118.104"/>
</g>
<!-- n21 -->
<g id="node21" class="node"><title>n21</title>
<ellipse fill="none" stroke="black" cx="464.547" cy="-90" rx="30.5947" ry="18"/>
<text text-anchor="middle" x="464.547" y="-86.3" font-family="Times,serif" font-size="14.00">fib(0)</text>
</g>
<!-- n10&#45;&gt;n21 -->
<g id="edge20" class="edge"><title>n10&#45;&gt;n21</title>
<path fill="none" stroke="black" d="M401.916,-146.496C413.038,-136.641 427.938,-123.439 440.415,-112.383"/>
<polygon fill="black" stroke="black" points="443.036,-114.737 448.199,-105.485 438.394,-109.498 443.036,-114.737"/>
</g>
<!-- n22 -->
<g id="node22" class="node"><title>n22</title>
<ellipse fill="none" stroke="black" cx="543.547" cy="-90" rx="30.5947" ry="18"/>
<text text-anchor="middle" x="543.547" y="-86.3" font-family="Times,serif" font-size="14.00">fib(1)</text>
</g>
<!-- n12&#45;&gt;n22 -->
<g id="edge21" class="edge"><title>n12&#45;&gt;n22</title>
<path fill="none" stroke="black" d="M543.547,-143.697C543.547,-135.983 543.547,-126.712 543.547,-118.112"/>
<polygon fill="black" stroke="black" points="547.047,-118.104 543.547,-108.104 540.047,-118.104 547.047,-118.104"/>
</g>
<!-- n23 -->
<g id="node23" class="node"><title>n23</title>
<ellipse fill="none" stroke="black" cx="622.547" cy="-90" rx="30.5947" ry="18"/>
<text text-anchor="middle" x="622.547" y="-86.3" font-family="Times,serif" font-size="14.00">fib(0)</text>
</g>
<!-- n12&#45;&gt;n23 -->
<g id="edge22" class="edge"><title>n12&#45;&gt;n23</title>
<path fill="none" stroke="black" d="M559.916,-146.496C571.038,-136.641 585.938,-123.439 598.415,-112.383"/>
<polygon fill="black" stroke="black" points="601.036,-114.737 606.199,-105.485 596.394,-109.498 601.036,-114.737"/>
</g>
<!-- n24 -->
<g id="node24" class="node"><title>n24</title>
<ellipse fill="none" stroke="black" cx="30.5473" cy="-18" rx="30.5947" ry="18"/>
<text text-anchor="middle" x="30.5473" y="-14.3" font-family="Times,serif" font-size="14.00">fib(1)</text>
</g>
<!-- n16&#45;&gt;n24 -->
<g id="edge23" class="edge"><title>n16&#45;&gt;n24</title>
<path fill="none" stroke="black" d="M60.5019,-72.7646C55.844,-64.4043 50.0562,-54.0159 44.8135,-44.6059"/>
<polygon fill="black" stroke="black" points="47.739,-42.6656 39.8145,-35.6334 41.624,-46.0726 47.739,-42.6656"/>
</g>
<!-- n25 -->
<g id="node25" class="node"><title>n25</title>
<ellipse fill="none" stroke="black" cx="109.547" cy="-18" rx="30.5947" ry="18"/>
<text text-anchor="middle" x="109.547" y="-14.3" font-family="Times,serif" font-size="14.00">fib(0)</text>
</g>
<!-- n16&#45;&gt;n25 -->
<g id="edge24" class="edge"><title>n16&#45;&gt;n25</title>
<path fill="none" stroke="black" d="M78.8246,-72.7646C83.602,-64.4043 89.5382,-54.0159 94.9153,-44.6059"/>
<polygon fill="black" stroke="black" points="98.1199,-46.0523 100.042,-35.6334 92.0422,-42.5793 98.1199,-46.0523"/>
</g>
</g>
</svg>
