<?xml version="1.0" encoding="UTF-8" standalone="no"?>
<!DOCTYPE svg PUBLIC "-//W3C//DTD SVG 1.1//EN"
 "http://www.w3.org/Graphics/SVG/1.1/DTD/svg11.dtd">
<!-- Generated by graphviz version 2.38.0 (20140413.2041)
 -->
<!-- Title: %3 Pages: 1 -->
<svg width="780pt" height="332pt"
 viewBox="0.00 0.00 780.09 332.00" xmlns="http://www.w3.org/2000/svg" xmlns:xlink="http://www.w3.org/1999/xlink">
<g id="graph0" class="graph" transform="scale(1 1) rotate(0) translate(4 328)">
<title>%3</title>
<polygon fill="white" stroke="none" points="-4,4 -4,-328 776.095,-328 776.095,4 -4,4"/>
<!-- n1 -->
<g id="node1" class="node"><title>n1</title>
<ellipse fill="none" stroke="black" cx="464.547" cy="-306" rx="30.5947" ry="18"/>
<text text-anchor="middle" x="464.547" y="-302.3" font-family="Times,serif" font-size="14.00">fib(6)</text>
</g>
<!-- n2 -->
<g id="node2" class="node"><title>n2</title>
<ellipse fill="none" stroke="black" cx="385.547" cy="-234" rx="30.5947" ry="18"/>
<text text-anchor="middle" x="385.547" y="-230.3" font-family="Times,serif" font-size="14.00">fib(5)</text>
</g>
<!-- n1&#45;&gt;n2 -->
<g id="edge1" class="edge"><title>n1&#45;&gt;n2</title>
<path fill="none" stroke="black" d="M448.178,-290.496C437.056,-280.641 422.157,-267.439 409.68,-256.383"/>
<polygon fill="black" stroke="black" points="411.701,-253.498 401.895,-249.485 407.059,-258.737 411.701,-253.498"/>
</g>
<!-- n3 -->
<g id="node3" class="node"><title>n3</title>
<ellipse fill="none" stroke="black" cx="543.547" cy="-234" rx="30.5947" ry="18"/>
<text text-anchor="middle" x="543.547" y="-230.3" font-family="Times,serif" font-size="14.00">fib(4)</text>
</g>
<!-- n1&#45;&gt;n3 -->
<g id="edge2" class="edge"><title>n1&#45;&gt;n3</title>
<path fill="none" stroke="black" d="M480.916,-290.496C492.038,-280.641 506.938,-267.439 519.415,-256.383"/>
<polygon fill="black" stroke="black" points="522.036,-258.737 527.199,-249.485 517.394,-253.498 522.036,-258.737"/>
</g>
<!-- n4 -->
<g id="node4" class="node"><title>n4</title>
<ellipse fill="none" stroke="black" cx="228.547" cy="-162" rx="30.5947" ry="18"/>
<text text-anchor="middle" x="228.547" y="-158.3" font-family="Times,serif" font-size="14.00">fib(4)</text>
</g>
<!-- n2&#45;&gt;n4 -->
<g id="edge3" class="edge"><title>n2&#45;&gt;n4</title>
<path fill="none" stroke="black" d="M361.702,-222.369C334.92,-210.427 291.289,-190.974 261.315,-177.61"/>
<polygon fill="black" stroke="black" points="262.661,-174.378 252.102,-173.502 259.81,-180.771 262.661,-174.378"/>
</g>
<!-- n5 -->
<g id="node5" class="node"><title>n5</title>
<ellipse fill="none" stroke="black" cx="385.547" cy="-162" rx="30.5947" ry="18"/>
<text text-anchor="middle" x="385.547" y="-158.3" font-family="Times,serif" font-size="14.00">fib(3)</text>
</g>
<!-- n2&#45;&gt;n5 -->
<g id="edge4" class="edge"><title>n2&#45;&gt;n5</title>
<path fill="none" stroke="black" d="M385.547,-215.697C385.547,-207.983 385.547,-198.712 385.547,-190.112"/>
<polygon fill="black" stroke="black" points="389.047,-190.104 385.547,-180.104 382.047,-190.104 389.047,-190.104"/>
</g>
<!-- n6 -->
<g id="node6" class="node"><title>n6</title>
<ellipse fill="none" stroke="black" cx="543.547" cy="-162" rx="30.5947" ry="18"/>
<text text-anchor="middle" x="543.547" y="-158.3" font-family="Times,serif" font-size="14.00">fib(3)</text>
</g>
<!-- n3&#45;&gt;n6 -->
<g id="edge5" class="edge"><title>n3&#45;&gt;n6</title>
<path fill="none" stroke="black" d="M543.547,-215.697C543.547,-207.983 543.547,-198.712 543.547,-190.112"/>
<polygon fill="black" stroke="black" points="547.047,-190.104 543.547,-180.104 540.047,-190.104 547.047,-190.104"/>
</g>
<!-- n7 -->
<g id="node7" class="node"><title>n7</title>
<ellipse fill="none" stroke="black" cx="662.547" cy="-162" rx="30.5947" ry="18"/>
<text text-anchor="middle" x="662.547" y="-158.3" font-family="Times,serif" font-size="14.00">fib(2)</text>
</g>
<!-- n3&#45;&gt;n7 -->
<g id="edge6" class="edge"><title>n3&#45;&gt;n7</title>
<path fill="none" stroke="black" d="M564.548,-220.647C583.581,-209.451 611.825,-192.837 633.108,-180.317"/>
<polygon fill="black" stroke="black" points="634.912,-183.317 641.756,-175.23 631.362,-177.283 634.912,-183.317"/>
</g>
<!-- n8 -->
<g id="node8" class="node"><title>n8</title>
<ellipse fill="none" stroke="black" cx="109.547" cy="-90" rx="30.5947" ry="18"/>
<text text-anchor="middle" x="109.547" y="-86.3" font-family="Times,serif" font-size="14.00">fib(3)</text>
</g>
<!-- n4&#45;&gt;n8 -->
<g id="edge7" class="edge"><title>n4&#45;&gt;n8</title>
<path fill="none" stroke="black" d="M207.546,-148.647C188.513,-137.451 160.27,-120.837 138.986,-108.317"/>
<polygon fill="black" stroke="black" points="140.732,-105.283 130.338,-103.23 137.183,-111.317 140.732,-105.283"/>
</g>
<!-- n9 -->
<g id="node9" class="node"><title>n9</title>
<ellipse fill="none" stroke="black" cx="228.547" cy="-90" rx="30.5947" ry="18"/>
<text text-anchor="middle" x="228.547" y="-86.3" font-family="Times,serif" font-size="14.00">fib(2)</text>
</g>
<!-- n4&#45;&gt;n9 -->
<g id="edge8" class="edge"><title>n4&#45;&gt;n9</title>
<path fill="none" stroke="black" d="M228.547,-143.697C228.547,-135.983 228.547,-126.712 228.547,-118.112"/>
<polygon fill="black" stroke="black" points="232.047,-118.104 228.547,-108.104 225.047,-118.104 232.047,-118.104"/>
</g>
<!-- n10 -->
<g id="node10" class="node"><title>n10</title>
<ellipse fill="none" stroke="black" cx="346.547" cy="-90" rx="30.5947" ry="18"/>
<text text-anchor="middle" x="346.547" y="-86.3" font-family="Times,serif" font-size="14.00">fib(2)</text>
</g>
<!-- n5&#45;&gt;n10 -->
<g id="edge9" class="edge"><title>n5&#45;&gt;n10</title>
<path fill="none" stroke="black" d="M376.502,-144.765C371.844,-136.404 366.056,-126.016 360.813,-116.606"/>
<polygon fill="black" stroke="black" points="363.739,-114.666 355.814,-107.633 357.624,-118.073 363.739,-114.666"/>
</g>
<!-- n11 -->
<g id="node11" class="node"><title>n11</title>
<ellipse fill="none" stroke="black" cx="425.547" cy="-90" rx="30.5947" ry="18"/>
<text text-anchor="middle" x="425.547" y="-86.3" font-family="Times,serif" font-size="14.00">fib(1)</text>
</g>
<!-- n5&#45;&gt;n11 -->
<g id="edge10" class="edge"><title>n5&#45;&gt;n11</title>
<path fill="none" stroke="black" d="M394.825,-144.765C399.602,-136.404 405.538,-126.016 410.915,-116.606"/>
<polygon fill="black" stroke="black" points="414.12,-118.052 416.042,-107.633 408.042,-114.579 414.12,-118.052"/>
</g>
<!-- n12 -->
<g id="node12" class="node"><title>n12</title>
<ellipse fill="none" stroke="black" cx="504.547" cy="-90" rx="30.5947" ry="18"/>
<text text-anchor="middle" x="504.547" y="-86.3" font-family="Times,serif" font-size="14.00">fib(2)</text>
</g>
<!-- n6&#45;&gt;n12 -->
<g id="edge11" class="edge"><title>n6&#45;&gt;n12</title>
<path fill="none" stroke="black" d="M534.502,-144.765C529.844,-136.404 524.056,-126.016 518.813,-116.606"/>
<polygon fill="black" stroke="black" points="521.739,-114.666 513.814,-107.633 515.624,-118.073 521.739,-114.666"/>
</g>
<!-- n13 -->
<g id="node13" class="node"><title>n13</title>
<ellipse fill="none" stroke="black" cx="583.547" cy="-90" rx="30.5947" ry="18"/>
<text text-anchor="middle" x="583.547" y="-86.3" font-family="Times,serif" font-size="14.00">fib(1)</text>
</g>
<!-- n6&#45;&gt;n13 -->
<g id="edge12" class="edge"><title>n6&#45;&gt;n13</title>
<path fill="none" stroke="black" d="M552.825,-144.765C557.602,-136.404 563.538,-126.016 568.915,-116.606"/>
<polygon fill="black" stroke="black" points="572.12,-118.052 574.042,-107.633 566.042,-114.579 572.12,-118.052"/>
</g>
<!-- n14 -->
<g id="node14" class="node"><title>n14</title>
<ellipse fill="none" stroke="black" cx="662.547" cy="-90" rx="30.5947" ry="18"/>
<text text-anchor="middle" x="662.547" y="-86.3" font-family="Times,serif" font-size="14.00">fib(1)</text>
</g>
<!-- n7&#45;&gt;n14 -->
<g id="edge13" class="edge"><title>n7&#45;&gt;n14</title>
<path fill="none" stroke="black" d="M662.547,-143.697C662.547,-135.983 662.547,-126.712 662.547,-118.112"/>
<polygon fill="black" stroke="black" points="666.047,-118.104 662.547,-108.104 659.047,-118.104 666.047,-118.104"/>
</g>
<!-- n15 -->
<g id="node15" class="node"><title>n15</title>
<ellipse fill="none" stroke="black" cx="741.547" cy="-90" rx="30.5947" ry="18"/>
<text text-anchor="middle" x="741.547" y="-86.3" font-family="Times,serif" font-size="14.00">fib(0)</text>
</g>
<!-- n7&#45;&gt;n15 -->
<g id="edge14" class="edge"><title>n7&#45;&gt;n15</title>
<path fill="none" stroke="black" d="M678.916,-146.496C690.038,-136.641 704.938,-123.439 717.415,-112.383"/>
<polygon fill="black" stroke="black" points="720.036,-114.737 725.199,-105.485 715.394,-109.498 720.036,-114.737"/>
</g>
<!-- n16 -->
<g id="node16" class="node"><title>n16</title>
<ellipse fill="none" stroke="black" cx="30.5473" cy="-18" rx="30.5947" ry="18"/>
<text text-anchor="middle" x="30.5473" y="-14.3" font-family="Times,serif" font-size="14.00">fib(1)</text>
</g>
<!-- n8&#45;&gt;n16 -->
<g id="edge15" class="edge"><title>n8&#45;&gt;n16</title>
<path fill="none" stroke="black" d="M93.1784,-74.496C82.0564,-64.6409 67.1565,-51.4386 54.68,-40.3834"/>
<polygon fill="black" stroke="black" points="56.7009,-37.4978 46.8952,-33.4855 52.0586,-42.737 56.7009,-37.4978"/>
</g>
<!-- n17 -->
<g id="node17" class="node"><title>n17</title>
<ellipse fill="none" stroke="black" cx="109.547" cy="-18" rx="30.5947" ry="18"/>
<text text-anchor="middle" x="109.547" y="-14.3" font-family="Times,serif" font-size="14.00">fib(0)</text>
</g>
<!-- n8&#45;&gt;n17 -->
<g id="edge16" class="edge"><title>n8&#45;&gt;n17</title>
<path fill="none" stroke="black" d="M109.547,-71.6966C109.547,-63.9827 109.547,-54.7125 109.547,-46.1124"/>
<polygon fill="black" stroke="black" points="113.047,-46.1043 109.547,-36.1043 106.047,-46.1044 113.047,-46.1043"/>
</g>
<!-- n18 -->
<g id="node18" class="node"><title>n18</title>
<ellipse fill="none" stroke="black" cx="188.547" cy="-18" rx="30.5947" ry="18"/>
<text text-anchor="middle" x="188.547" y="-14.3" font-family="Times,serif" font-size="14.00">fib(1)</text>
</g>
<!-- n9&#45;&gt;n18 -->
<g id="edge17" class="edge"><title>n9&#45;&gt;n18</title>
<path fill="none" stroke="black" d="M219.27,-72.7646C214.493,-64.4043 208.556,-54.0159 203.179,-44.6059"/>
<polygon fill="black" stroke="black" points="206.052,-42.5793 198.052,-35.6334 199.975,-46.0523 206.052,-42.5793"/>
</g>
<!-- n19 -->
<g id="node19" class="node"><title>n19</title>
<ellipse fill="none" stroke="black" cx="267.547" cy="-18" rx="30.5947" ry="18"/>
<text text-anchor="middle" x="267.547" y="-14.3" font-family="Times,serif" font-size="14.00">fib(0)</text>
</g>
<!-- n9&#45;&gt;n19 -->
<g id="edge18" class="edge"><title>n9&#45;&gt;n19</title>
<path fill="none" stroke="black" d="M237.593,-72.7646C242.251,-64.4043 248.038,-54.0159 253.281,-44.6059"/>
<polygon fill="black" stroke="black" points="256.471,-46.0726 258.28,-35.6334 250.356,-42.6656 256.471,-46.0726"/>
</g>
<!-- n20 -->
<g id="node20" class="node"><title>n20</title>
<ellipse fill="none" stroke="black" cx="346.547" cy="-18" rx="30.5947" ry="18"/>
<text text-anchor="middle" x="346.547" y="-14.3" font-family="Times,serif" font-size="14.00">fib(1)</text>
</g>
<!-- n10&#45;&gt;n20 -->
<g id="edge19" class="edge"><title>n10&#45;&gt;n20</title>
<path fill="none" stroke="black" d="M346.547,-71.6966C346.547,-63.9827 346.547,-54.7125 346.547,-46.1124"/>
<polygon fill="black" stroke="black" points="350.047,-46.1043 346.547,-36.1043 343.047,-46.1044 350.047,-46.1043"/>
</g>
<!-- n21 -->
<g id="node21" class="node"><title>n21</title>
<ellipse fill="none" stroke="black" cx="425.547" cy="-18" rx="30.5947" ry="18"/>
<text text-anchor="middle" x="425.547" y="-14.3" font-family="Times,serif" font-size="14.00">fib(0)</text>
</g>
<!-- n10&#45;&gt;n21 -->
<g id="edge20" class="edge"><title>n10&#45;&gt;n21</title>
<path fill="none" stroke="black" d="M362.916,-74.496C374.038,-64.6409 388.938,-51.4386 401.415,-40.3834"/>
<polygon fill="black" stroke="black" points="404.036,-42.737 409.199,-33.4855 399.394,-37.4978 404.036,-42.737"/>
</g>
<!-- n22 -->
<g id="node22" class="node"><title>n22</title>
<ellipse fill="none" stroke="black" cx="504.547" cy="-18" rx="30.5947" ry="18"/>
<text text-anchor="middle" x="504.547" y="-14.3" font-family="Times,serif" font-size="14.00">fib(1)</text>
</g>
<!-- n12&#45;&gt;n22 -->
<g id="edge21" class="edge"><title>n12&#45;&gt;n22</title>
<path fill="none" stroke="black" d="M504.547,-71.6966C504.547,-63.9827 504.547,-54.7125 504.547,-46.1124"/>
<polygon fill="black" stroke="black" points="508.047,-46.1043 504.547,-36.1043 501.047,-46.1044 508.047,-46.1043"/>
</g>
<!-- n23 -->
<g id="node23" class="node"><title>n23</title>
<ellipse fill="none" stroke="black" cx="583.547" cy="-18" rx="30.5947" ry="18"/>
<text text-anchor="middle" x="583.547" y="-14.3" font-family="Times,serif" font-size="14.00">fib(0)</text>
</g>
<!-- n12&#45;&gt;n23 -->
<g id="edge22" class="edge"><title>n12&#45;&gt;n23</title>
<path fill="none" stroke="black" d="M520.916,-74.496C532.038,-64.6409 546.938,-51.4386 559.415,-40.3834"/>
<polygon fill="black" stroke="black" points="562.036,-42.737 567.199,-33.4855 557.394,-37.4978 562.036,-42.737"/>
</g>
</g>
</svg>
